# xmcd
#
# Track frame offsets:
# 150
# 21552
# 41612
# 57375
# 75000
# 92620
# 110827
# 132477
# 152875
# 159610
# 177312
# 198805
#
# Disc length: 2916 seconds
#
#
# Revision: 6
# Processed by: cddbd v1.5.2PL0 Copyright (c) Steve Scherf et al.
# Submitted via: FreeRIP 2.96 
#
DISCID=9b0b620c
DTITLE=Firehouse - Hold Your Fire
DYEAR=1992
DGENRE=Rock
TTITLE0=Reach For The Sky
TTITLE1=Rock You Tonight
TTITLE2=Sleeping With You
TTITLE3=You're Too Bad
TTITLE4=When I Look Into Your Eyes
TTITLE5=Get In Touch
TTITLE6=Hold Your Fire
TTITLE7=The Meaning Of Love
TTITLE8=Talk Of The Town
TTITLE9=Life In The Real World
TTITLE10=Mama Didn't Raise No Fool
TTITLE11=Hold The Dream
EXTD=
EXTT0=
EXTT1=
EXTT2=
EXTT3=
EXTT4=
EXTT5=
EXTT6=
EXTT7=
EXTT8=
EXTT9=
EXTT10=
EXTT11=
PLAYORDER=
